{
	"asset":{
		"generator":"Khronos glTF Blender I/O v4.4.56",
		"version":"2.0"
	},
	"extensionsUsed":[
		"KHR_materials_clearcoat"
	],
	"scene":0,
	"scenes":[
		{
			"name":"Scene",
			"nodes":[
				0
			]
		}
	],
	"nodes":[
		{
			"mesh":0,
			"name":"scene"
		}
	],
	"materials":[
		{
			"doubleSided":true,
			"extensions":{
				"KHR_materials_clearcoat":{
					"clearcoatFactor":0.30000001192092896
				}
			},
			"name":"TOP",
			"pbrMetallicRoughness":{
				"baseColorTexture":{
					"index":0
				},
				"metallicFactor":0,
				"roughnessFactor":0.5
			}
		},
		{
			"doubleSided":true,
			"name":"BACK",
			"pbrMetallicRoughness":{
				"baseColorTexture":{
					"index":1
				},
				"metallicFactor":0,
				"roughnessFactor":0.5
			}
		},
		{
			"doubleSided":true,
			"name":"CARD",
			"pbrMetallicRoughness":{
				"metallicFactor":0,
				"roughnessFactor":0.5
			}
		}
	],
	"meshes":[
		{
			"name":"Plane",
			"primitives":[
				{
					"attributes":{
						"POSITION":0,
						"NORMAL":1,
						"TEXCOORD_0":2
					},
					"indices":3,
					"material":0
				},
				{
					"attributes":{
						"POSITION":4,
						"NORMAL":5,
						"TEXCOORD_0":6
					},
					"indices":7,
					"material":1
				},
				{
					"attributes":{
						"POSITION":8,
						"NORMAL":9,
						"TEXCOORD_0":10
					},
					"indices":11,
					"material":2
				}
			]
		}
	],
	"textures":[
		{
			"sampler":0,
			"source":0
		},
		{
			"sampler":0,
			"source":1
		}
	],
	"images":[
		{
			"mimeType":"image/jpeg",
			"name":"617N79tctIL._AC_SY879_",
			"uri":"textures/617N79tctIL__AC_SY879_.jpg"
		},
		{
			"mimeType":"image/jpeg",
			"name":"61OLjA1zjIL._AC_SY879_",
			"uri":"textures/61OLjA1zjIL__AC_SY879_.jpg"
		}
	],
	"accessors":[
		{
			"bufferView":0,
			"componentType":5126,
			"count":1321,
			"max":[
				0.550482988357544,
				0.0028806934133172035,
				0.7641873955726624
			],
			"min":[
				-0.5504823923110962,
				0.0016092904843389988,
				-0.764409065246582
			],
			"type":"VEC3"
		},
		{
			"bufferView":1,
			"componentType":5126,
			"count":1321,
			"type":"VEC3"
		},
		{
			"bufferView":2,
			"componentType":5126,
			"count":1321,
			"type":"VEC2"
		},
		{
			"bufferView":3,
			"componentType":5123,
			"count":6642,
			"type":"SCALAR"
		},
		{
			"bufferView":4,
			"componentType":5126,
			"count":1322,
			"max":[
				0.5504837036132812,
				-0.0016028237296268344,
				0.7641882300376892
			],
			"min":[
				-0.5504834651947021,
				-0.002880760235711932,
				-0.7644099593162537
			],
			"type":"VEC3"
		},
		{
			"bufferView":5,
			"componentType":5126,
			"count":1322,
			"type":"VEC3"
		},
		{
			"bufferView":6,
			"componentType":5126,
			"count":1322,
			"type":"VEC2"
		},
		{
			"bufferView":7,
			"componentType":5123,
			"count":6642,
			"type":"SCALAR"
		},
		{
			"bufferView":8,
			"componentType":5126,
			"count":4928,
			"max":[
				0.551295816898346,
				0.0020683875773102045,
				0.7650182843208313
			],
			"min":[
				-0.5513129234313965,
				-0.0020688693039119244,
				-0.7652217745780945
			],
			"type":"VEC3"
		},
		{
			"bufferView":9,
			"componentType":5126,
			"count":4928,
			"type":"VEC3"
		},
		{
			"bufferView":10,
			"componentType":5126,
			"count":4928,
			"type":"VEC2"
		},
		{
			"bufferView":11,
			"componentType":5123,
			"count":26640,
			"type":"SCALAR"
		}
	],
	"bufferViews":[
		{
			"buffer":0,
			"byteLength":15852,
			"byteOffset":0,
			"target":34962
		},
		{
			"buffer":0,
			"byteLength":15852,
			"byteOffset":15852,
			"target":34962
		},
		{
			"buffer":0,
			"byteLength":10568,
			"byteOffset":31704,
			"target":34962
		},
		{
			"buffer":0,
			"byteLength":13284,
			"byteOffset":42272,
			"target":34963
		},
		{
			"buffer":0,
			"byteLength":15864,
			"byteOffset":55556,
			"target":34962
		},
		{
			"buffer":0,
			"byteLength":15864,
			"byteOffset":71420,
			"target":34962
		},
		{
			"buffer":0,
			"byteLength":10576,
			"byteOffset":87284,
			"target":34962
		},
		{
			"buffer":0,
			"byteLength":13284,
			"byteOffset":97860,
			"target":34963
		},
		{
			"buffer":0,
			"byteLength":59136,
			"byteOffset":111144,
			"target":34962
		},
		{
			"buffer":0,
			"byteLength":59136,
			"byteOffset":170280,
			"target":34962
		},
		{
			"buffer":0,
			"byteLength":39424,
			"byteOffset":229416,
			"target":34962
		},
		{
			"buffer":0,
			"byteLength":53280,
			"byteOffset":268840,
			"target":34963
		}
	],
	"samplers":[
		{
			"magFilter":9729,
			"minFilter":9987
		}
	],
	"buffers":[
		{
			"byteLength":322120,
			"uri":"tcg_card.bin"
		}
	]
}
